<?xml version="1.0" standalone="no"?>
<!DOCTYPE svg PUBLIC "-//W3C//DTD SVG 20010904//EN"
 "http://www.w3.org/TR/2001/REC-SVG-20010904/DTD/svg10.dtd">
<svg version="1.0" xmlns="http://www.w3.org/2000/svg"
 width="1716.000000pt" height="1716.000000pt" viewBox="0 0 1716.000000 1716.000000"
 preserveAspectRatio="xMidYMid meet">
<metadata>
Created by potrace 1.11, written by Peter Selinger 2001-2013
</metadata>
<g transform="translate(0.000000,1716.000000) scale(0.100000,-0.100000)"
fill="#000000" stroke="none">
<path d="M13090 14294 c-131 -28 -287 -103 -470 -229 -69 -47 -163 -111 -210
-142 -214 -140 -215 -141 -375 -292 -59 -55 -163 -139 -204 -165 -20 -13 -70
-35 -111 -51 -41 -15 -88 -33 -105 -40 -29 -13 -140 -47 -150 -46 -2 0 -22 -6
-44 -14 -21 -7 -65 -16 -97 -20 -33 -4 -66 -9 -74 -10 -8 -2 -44 -6 -80 -9
-36 -4 -123 -16 -195 -26 -233 -33 -245 -35 -371 -44 -44 -4 -91 -9 -105 -11
-20 -3 -173 -23 -324 -41 -22 -2 -56 -6 -75 -9 -19 -2 -60 -7 -90 -10 -52 -6
-70 -8 -165 -20 -22 -3 -64 -7 -93 -11 -29 -3 -61 -7 -70 -9 -9 -1 -42 -6 -72
-10 -50 -6 -267 -40 -315 -49 -20 -3 -105 -17 -135 -21 -386 -55 -639 -154
-1345 -525 -49 -26 -191 -99 -315 -163 -124 -63 -326 -167 -450 -230 -124 -63
-297 -154 -385 -202 -203 -110 -610 -311 -657 -324 -4 -1 -33 -13 -63 -27 -31
-13 -138 -52 -238 -85 -100 -34 -224 -81 -276 -105 -51 -24 -95 -44 -96 -44
-1 0 -8 32 -15 70 -7 39 -17 73 -22 76 -4 3 -8 12 -8 21 0 26 -103 223 -148
283 -63 83 -123 134 -242 207 -135 82 -388 173 -580 208 -14 3 -38 7 -53 11
-16 3 -38 7 -50 9 -12 1 -62 8 -112 15 -98 14 -417 18 -505 7 -30 -4 -75 -9
-100 -12 -25 -4 -79 -12 -120 -20 -41 -8 -86 -16 -100 -19 -70 -12 -444 -123
-525 -156 -11 -4 -56 -21 -100 -36 -130 -45 -289 -132 -488 -266 -32 -21 -62
-36 -67 -33 -24 15 -459 20 -960 12 -120 -2 -218 1 -237 7 -27 8 -37 6 -72
-17 -46 -31 -55 -69 -21 -87 11 -6 19 -14 16 -18 -2 -4 -7 -41 -10 -82 -5 -61
-37 -316 -51 -405 -2 -11 -6 -45 -10 -75 -3 -30 -8 -61 -11 -69 -7 -20 -6
-227 1 -281 12 -92 63 -282 108 -402 54 -143 157 -263 278 -323 l70 -36 -38
-31 c-42 -34 -229 -158 -238 -158 -3 0 -18 -8 -33 -19 -15 -10 -85 -51 -157
-91 -118 -66 -327 -198 -378 -239 -32 -26 -166 -152 -219 -206 -51 -52 -95
-133 -121 -222 -57 -194 67 -401 312 -519 33 -16 60 -31 61 -34 0 -3 -19 -15
-42 -28 -79 -42 -160 -132 -202 -222 -32 -69 -29 -138 8 -214 66 -134 287
-266 446 -266 74 0 128 19 205 75 104 74 148 132 238 315 69 141 85 166 102
163 40 -7 242 -7 310 1 102 10 252 35 315 51 30 8 69 16 85 19 17 3 57 14 90
25 33 10 107 34 165 51 123 38 271 100 430 180 136 68 173 85 246 110 l54 19
1 -42 c6 -360 12 -429 61 -667 16 -80 31 -152 33 -160 3 -8 9 -31 14 -50 33
-123 43 -156 66 -211 13 -34 45 -96 69 -138 91 -156 194 -351 185 -351 -17 0
-39 -47 -50 -104 -5 -31 -12 -204 -14 -384 -3 -340 -4 -348 -36 -552 -30 -188
-55 -268 -146 -460 -56 -116 -113 -216 -145 -251 -12 -14 -57 -63 -98 -109
-41 -46 -110 -118 -152 -161 -118 -120 -192 -239 -215 -350 -15 -72 -15 -199
1 -257 52 -193 285 -351 482 -328 61 7 111 26 179 69 70 44 115 84 230 206 55
58 186 191 291 296 189 187 213 215 312 367 110 166 137 234 186 478 24 121
96 370 106 370 4 0 44 -25 91 -56 74 -49 194 -112 299 -157 104 -45 343 -111
445 -123 17 -2 53 -8 80 -13 28 -6 68 -12 90 -15 22 -3 72 -12 110 -20 39 -8
84 -17 100 -21 50 -9 167 -19 233 -19 l64 -1 -6 -65 c-23 -246 -122 -593 -261
-905 -7 -16 -23 -55 -36 -85 -33 -77 -103 -202 -158 -281 -59 -86 -232 -322
-241 -329 -3 -3 -39 -50 -80 -105 -41 -55 -100 -128 -131 -161 -77 -83 -102
-133 -105 -212 -5 -152 102 -336 243 -419 41 -24 60 -28 126 -29 93 -2 198 17
263 45 72 32 271 176 375 272 14 13 57 51 95 84 38 32 76 66 85 75 9 8 55 53
103 99 253 244 406 479 586 900 130 305 146 367 166 641 3 41 8 78 10 81 16
27 21 292 11 560 l-5 136 62 21 c33 11 167 56 296 100 270 92 522 198 655 277
106 62 195 128 450 334 224 181 230 186 340 296 89 90 122 128 225 255 29 36
58 70 64 75 7 6 59 69 116 140 58 72 111 136 118 144 57 60 172 238 233 361
49 99 123 326 135 414 l7 46 71 1 c39 0 78 2 86 4 8 2 24 6 35 8 60 14 120 32
205 64 166 60 221 88 344 170 64 43 82 51 88 39 12 -21 -82 -280 -143 -394
-63 -117 -139 -232 -264 -397 -159 -209 -177 -250 -176 -392 1 -73 5 -95 29
-147 36 -75 69 -116 140 -168 87 -64 162 -90 262 -91 77 0 92 3 160 35 41 19
115 64 164 99 110 79 303 268 402 395 170 218 311 516 374 791 12 51 16 455 6
583 -7 97 -25 244 -34 275 -15 58 -5 78 81 156 45 41 147 124 227 184 103 78
194 159 313 280 92 93 167 165 167 160 0 -6 -11 -62 -25 -125 -21 -99 -23
-135 -20 -260 2 -80 6 -156 9 -170 3 -14 10 -61 16 -105 7 -44 20 -124 31
-178 10 -53 21 -112 24 -130 9 -50 34 -145 61 -226 40 -123 62 -246 58 -323
-8 -157 -16 -204 -93 -503 -43 -172 -49 -199 -57 -260 -3 -22 -7 -51 -10 -65
-3 -14 -7 -87 -10 -162 -4 -122 -2 -143 17 -195 28 -76 88 -156 142 -187 96
-56 231 -41 421 48 85 40 143 86 350 277 34 31 84 75 111 98 169 143 250 298
279 536 4 28 9 61 11 75 28 147 36 330 19 483 -6 62 -15 148 -19 192 -4 44 -9
94 -11 110 -7 50 -6 408 1 461 4 27 18 110 31 184 53 294 108 484 214 740 95
231 197 509 215 590 2 8 10 42 19 75 8 33 18 74 22 90 10 51 13 315 3 400 -4
44 -11 98 -13 120 -10 90 -55 252 -88 320 -25 50 -84 129 -143 192 -54 57
-258 322 -320 413 -55 83 -118 209 -139 279 -23 77 -24 387 -2 430 22 41 150
196 211 254 86 83 208 177 266 207 250 128 490 67 774 -199 206 -192 426 -386
485 -427 215 -149 583 -319 759 -349 19 -3 37 -7 40 -9 6 -4 231 -46 326 -62
86 -14 268 -11 373 6 213 35 332 85 485 207 89 72 174 188 262 362 70 138 98
317 67 428 -50 174 -294 301 -478 248 -113 -32 -214 -92 -434 -258 -36 -27
-113 -93 -172 -148 -192 -179 -201 -184 -340 -155 -122 26 -554 229 -680 319
-70 51 -88 65 -182 147 -100 87 -396 307 -497 368 -189 115 -442 203 -769 268
-96 19 -406 18 -500 -2z m525 -134 c50 -12 128 -30 175 -41 183 -44 401 -140
565 -249 61 -41 112 -77 115 -80 3 -3 58 -45 123 -93 113 -84 144 -109 211
-171 118 -109 304 -222 536 -324 292 -129 345 -145 465 -145 125 1 163 22 337
185 131 123 122 116 296 241 167 120 261 162 340 153 150 -18 252 -128 238
-255 -13 -115 -41 -207 -81 -272 -14 -21 -25 -41 -25 -45 0 -11 -107 -169
-136 -200 -122 -130 -282 -201 -538 -239 -50 -7 -171 -8 -216 -1 -19 3 -51 7
-70 10 -31 5 -147 26 -220 41 -14 3 -34 7 -45 9 -207 42 -458 149 -700 299
-44 27 -82 52 -85 56 -3 4 -12 12 -21 17 -17 9 -115 95 -228 199 -37 33 -84
76 -105 95 -22 19 -70 64 -108 100 -130 122 -303 233 -404 259 -199 52 -361
39 -520 -40 -184 -92 -485 -389 -556 -548 -28 -60 -35 -344 -12 -441 19 -83
76 -215 133 -310 53 -88 300 -414 394 -518 92 -102 127 -176 161 -342 23 -109
26 -147 31 -325 3 -120 0 -181 -12 -245 -22 -117 -117 -401 -214 -637 -44
-109 -94 -236 -110 -283 -46 -130 -115 -408 -148 -596 -30 -167 -31 -172 -26
-444 2 -151 6 -293 9 -315 3 -22 8 -58 11 -79 23 -175 24 -380 1 -501 -2 -11
-11 -69 -21 -130 -20 -127 -18 -117 -34 -175 -31 -109 -92 -192 -236 -315 -44
-38 -82 -72 -85 -75 -3 -4 -48 -44 -100 -91 -52 -46 -106 -94 -119 -106 -63
-56 -292 -139 -341 -122 -41 15 -81 58 -108 117 -24 53 -25 61 -18 181 9 186
22 255 100 556 50 193 53 208 63 325 14 168 3 260 -50 435 -12 39 -22 73 -23
78 -1 4 -2 8 -4 10 -6 8 -73 325 -85 407 -7 43 -9 58 -20 133 -2 17 -7 86 -11
152 -6 125 -2 163 46 375 50 218 48 239 -15 266 -19 8 -47 14 -63 14 -24 0
-32 -7 -46 -37 -10 -21 -39 -55 -66 -76 -26 -22 -88 -80 -137 -130 -182 -188
-252 -251 -403 -367 -85 -66 -171 -134 -190 -151 -112 -104 -176 -159 -300
-254 -204 -159 -280 -215 -350 -260 -41 -26 -91 -58 -110 -71 -19 -12 -101
-63 -182 -113 -81 -49 -173 -108 -205 -129 -64 -44 -113 -67 -242 -117 -153
-58 -238 -78 -346 -80 -55 -2 -105 -3 -110 -4 -19 -2 -44 -56 -50 -107 -9 -78
-53 -232 -101 -351 -28 -70 -119 -234 -161 -291 -36 -47 -256 -323 -274 -343
-8 -8 -34 -39 -59 -69 -52 -64 -55 -68 -156 -185 -74 -87 -136 -150 -220 -226
-52 -47 -383 -313 -459 -370 -33 -24 -68 -51 -78 -60 -81 -73 -419 -229 -687
-318 -96 -32 -213 -72 -260 -89 -138 -49 -126 -50 -134 10 -18 138 -26 191
-40 278 -2 14 -12 59 -22 100 -9 41 -18 86 -19 100 -3 37 -2 36 -46 68 -39 29
-71 33 -86 9 -10 -17 -3 -137 13 -196 14 -56 18 -72 29 -146 3 -22 7 -51 10
-65 2 -14 9 -63 15 -110 11 -87 15 -109 25 -170 18 -105 24 -572 8 -680 -7
-47 -15 -123 -18 -170 -15 -211 -40 -305 -152 -565 -130 -299 -255 -523 -381
-675 -114 -139 -462 -459 -651 -599 -134 -99 -208 -128 -342 -133 -118 -4
-281 262 -226 368 8 16 39 56 69 89 30 33 110 134 178 225 68 91 149 199 181
240 153 203 232 345 339 610 102 252 195 558 216 705 3 28 8 58 10 68 18 103
25 372 12 497 -6 66 -35 229 -62 355 -8 39 -17 84 -20 100 -3 17 -8 41 -11 55
-2 14 -6 36 -9 50 -10 59 -20 88 -51 145 -18 33 -45 71 -58 84 -26 23 -26 23
-71 6 -61 -24 -69 -51 -28 -102 46 -59 59 -92 77 -189 9 -49 28 -145 42 -214
14 -69 27 -132 28 -140 3 -21 17 -111 21 -135 2 -11 7 -66 10 -123 l7 -103
-84 2 c-71 2 -145 13 -360 54 -15 3 -47 7 -70 10 -24 3 -51 7 -59 10 -8 2 -40
7 -70 10 -68 8 -253 55 -350 89 -281 98 -552 285 -751 516 -93 109 -409 549
-409 570 0 5 -4 10 -10 10 -5 0 -10 7 -10 15 0 8 -4 15 -10 15 -5 0 -10 4 -10
10 0 8 -42 82 -90 160 -9 14 -44 76 -208 369 -90 160 -112 216 -162 426 -35
144 -46 198 -65 330 -4 22 -8 51 -11 65 -2 14 -7 113 -9 220 -3 107 -10 209
-14 226 l-9 31 137 62 c75 34 180 90 233 125 109 72 106 73 102 -39 -7 -176
-3 -380 10 -475 4 -30 9 -71 12 -91 7 -58 39 -160 67 -214 42 -84 139 -164
218 -179 13 -2 44 -9 69 -15 69 -16 234 -6 335 19 256 66 485 252 685 555 185
282 374 750 430 1067 6 32 13 70 15 85 17 85 32 190 39 263 22 223 31 368 41
625 7 182 17 370 21 374 2 2 15 -1 30 -7 16 -8 34 -32 50 -70 80 -180 140
-282 168 -282 27 0 95 34 99 50 3 11 -11 40 -33 72 -20 29 -56 99 -80 156 -65
153 -118 203 -225 211 -5 1 -11 29 -12 64 -2 34 -5 77 -8 95 -4 25 -2 32 7 29
7 -2 45 12 83 33 39 21 165 70 280 110 116 39 219 75 230 80 11 5 70 30 130
55 93 40 490 235 605 297 19 11 58 32 85 47 64 35 314 164 620 321 307 157
531 273 621 320 202 108 463 234 574 278 229 90 297 111 495 146 176 32 194
35 236 40 45 6 97 14 199 31 47 8 110 17 140 20 30 3 66 8 80 10 14 2 48 7 75
10 28 3 84 10 125 15 41 5 102 12 135 15 33 3 71 8 85 10 24 4 61 9 160 21 25
3 79 9 120 14 104 13 164 19 240 26 93 8 189 20 240 29 8 1 40 6 70 10 30 4
62 9 71 10 9 2 40 6 70 10 30 3 70 8 89 10 19 3 58 7 85 10 128 14 258 51 465
132 135 53 213 107 387 271 66 62 142 128 169 146 75 50 318 213 414 277 136
90 281 161 360 176 86 16 120 18 260 17 119 -2 176 -7 245 -24z m-9665 -2064
c253 -15 529 -79 740 -172 186 -81 290 -163 365 -284 108 -177 162 -359 180
-607 2 -36 1 -37 -80 -49 -27 -4 -57 -8 -65 -10 -8 -1 -33 -5 -56 -9 -22 -3
-52 -7 -65 -10 -13 -2 -58 -8 -99 -15 -41 -6 -95 -15 -120 -20 -25 -5 -63 -12
-85 -15 -23 -3 -52 -8 -65 -10 -14 -3 -41 -8 -60 -11 -19 -3 -54 -10 -78 -15
-23 -5 -59 -12 -80 -15 -20 -3 -45 -7 -54 -10 -10 -3 -30 -7 -45 -10 -16 -3
-84 -16 -153 -29 -136 -26 -155 -29 -278 -46 -72 -11 -84 -10 -100 4 -27 25
-170 92 -257 122 -44 15 -161 60 -260 100 -259 105 -821 278 -1075 330 -41 8
-133 34 -137 39 -9 9 61 101 127 166 36 36 105 90 153 120 48 30 100 63 115
72 68 44 278 141 382 177 188 64 452 143 524 155 16 3 52 10 80 15 47 9 93 17
156 26 14 2 70 7 125 11 55 3 101 7 102 8 2 2 17 1 35 0 18 -1 76 -5 128 -8z
m-2011 -535 l54 -6 -24 -30 c-35 -42 -79 -113 -79 -125 0 -14 -8 -13 -118 16
-53 14 -104 27 -112 29 -49 10 -199 51 -288 78 -72 22 -98 33 -85 38 21 9 573
8 652 0z m3292 -703 c1 -23 -3 -132 -6 -168 -2 -19 -6 -109 -10 -200 -10 -243
-20 -410 -30 -512 -12 -112 -16 -154 -20 -178 -2 -14 -6 -45 -10 -70 -13 -87
-16 -105 -20 -120 -2 -8 -7 -35 -10 -59 -12 -83 -76 -314 -110 -396 -7 -16
-36 -88 -65 -160 -133 -327 -266 -544 -460 -746 -44 -46 -153 -125 -225 -164
-204 -109 -479 -113 -577 -9 -31 33 -71 120 -83 179 -5 22 -9 42 -10 45 -13
49 -26 254 -25 400 4 347 3 446 -5 570 -10 166 -10 240 -1 400 14 261 15 263
39 368 9 34 15 63 15 65 0 4 13 121 17 152 5 34 15 164 19 242 4 94 36 112
236 137 38 5 63 9 185 31 113 20 115 21 265 50 74 14 142 27 150 30 8 2 35 7
60 10 25 3 52 8 61 11 10 3 30 6 45 8 16 3 72 12 124 21 52 9 106 18 120 20
49 7 115 17 135 21 10 2 35 6 55 9 20 3 56 9 81 14 24 5 47 9 52 10 4 1 7 -5
8 -11z m-3257 -961 c113 -193 338 -378 561 -462 134 -51 278 -67 444 -50 146
15 271 77 377 187 36 37 67 68 68 68 1 0 -1 -28 -4 -62 -4 -35 -4 -108 -2
-163 3 -55 5 -143 6 -194 l1 -95 -50 -39 c-162 -124 -313 -202 -640 -327 -82
-31 -213 -89 -290 -127 -173 -87 -289 -133 -459 -185 -304 -91 -483 -123 -691
-122 -111 0 -370 29 -394 43 -7 5 -3 29 10 71 35 112 46 186 43 277 -6 197
-89 333 -262 430 -68 38 -181 72 -246 75 l-40 1 35 29 c60 52 219 153 428 272
227 131 319 190 413 268 l63 53 110 1 c107 1 126 3 247 25 57 10 194 61 212
79 17 17 22 12 60 -53z m9100 -889 c8 -59 15 -122 21 -193 9 -87 9 -492 1
-545 -15 -92 -77 -274 -149 -430 -29 -64 -132 -233 -187 -305 -70 -93 -271
-299 -350 -359 -146 -111 -229 -151 -295 -143 -63 7 -170 63 -210 110 -53 61
-68 102 -68 182 0 90 14 118 153 305 236 319 301 434 389 688 51 144 56 193
26 238 -15 23 -14 25 27 50 223 140 302 194 451 309 95 74 175 134 179 134 4
1 9 -18 12 -41z m-10411 -730 c1 -3 -46 -57 -105 -120 -123 -132 -135 -146
-172 -210 -16 -27 -34 -48 -41 -48 -19 0 -61 54 -75 96 -10 29 -10 45 1 78 19
57 117 152 208 202 l75 41 54 -17 c29 -9 54 -19 55 -22z m257 -44 c30 -3 56
-7 57 -8 6 -5 -122 -255 -150 -293 -37 -52 -137 -132 -186 -149 -39 -14 -62
-11 -129 13 -32 11 -42 19 -37 31 18 47 108 162 210 267 89 91 115 125 112
141 -3 19 -1 21 32 13 20 -5 61 -11 91 -15z m2536 -1484 c211 -322 395 -563
534 -700 l97 -95 -24 -53 c-29 -63 -79 -249 -117 -435 -36 -175 -74 -259 -204
-447 -61 -88 -131 -164 -306 -330 -38 -36 -96 -96 -130 -135 -192 -218 -345
-341 -433 -346 -101 -7 -253 85 -306 186 -19 34 -22 56 -22 150 0 99 3 116 28
170 36 77 89 146 190 249 217 221 268 288 366 481 109 218 147 329 175 510 10
67 16 113 22 170 3 33 9 69 12 80 3 11 6 162 8 335 1 173 3 329 3 345 l1 30
22 -35 c12 -19 49 -78 84 -130z"/>
</g>
</svg>
